<?xml version="1.0" encoding="UTF-8" standalone="no"?><svg xmlns="http://www.w3.org/2000/svg" xmlns:xlink="http://www.w3.org/1999/xlink" fill="#000000" height="89.2" preserveAspectRatio="xMidYMid meet" version="1" viewBox="0.0 -1.6 488.3 89.2" width="488.3" zoomAndPan="magnify"><g id="change1_1"><path d="M486.4,65.1c-1.8,13.7-10.7,18.1-23.5,18c-0.2,0-0.4,0-0.6,0C428.8,87.6,391,83.7,357,84 c-37.6,0.3-75.3,0.4-112.9,0.4c-73.6,0-147.2-0.4-220.8,0.2C4.8,84.7,0.4,66.6,0.8,48.4c-0.1-0.6-0.2-1.2-0.3-1.8 c-0.1-1.3-0.2-2.5-0.1-3.8c-0.3-1.1-0.4-2.2-0.3-3.6C1,24.9,1.9,8.7,14.3,2.8c1.7-1.4,4-2.3,7-2c0.2,0,0.3,0,0.5,0 c0.6-0.1,1.1-0.2,1.7-0.2c76.7,0,153.6,1,230.5,1.2c35.9,0.1,71.7,0,107.6-0.3c32.8-0.2,66.5-3.1,99.1-0.4 c14.2,1.2,23.1,3.8,24.9,19.2C487.2,34.9,488.3,50.6,486.4,65.1z" fill="#ff66c4"/></g></svg>